<svg width="1212" height="386" viewBox="0 0 1212 386" fill="none" xmlns="http://www.w3.org/2000/svg">
<g opacity="0.5" clip-path="url(#clip0_1601_6)">
<path d="M137.11 0L59.4409 66.1473L0 386H612.836L623.04 356.723H630.47L620.365 386H637.306L647.51 356.723H654.94L644.835 386H661.874L671.979 356.723H679.41L669.305 386H686.344L696.449 356.723H703.978L693.774 386H710.814L720.919 356.723H728.448L718.244 386H735.284L745.488 356.723H752.918L742.813 386H759.754L769.958 356.723H777.388L767.283 386H784.224L794.428 356.723H801.858L791.753 386H808.793L818.898 356.723H826.328L816.223 386H833.262L843.367 356.723H850.897L840.693 386H857.732L867.837 356.723H875.366L865.162 386H882.202L892.406 356.723H899.836L889.731 386H906.672L916.876 356.723H924.306L914.201 386H931.241L941.346 356.723H948.776L938.671 386H955.711L965.816 356.723H973.246L963.141 386H980.181L990.285 356.723H997.815L987.611 386H1004.65L1014.85 356.723H1022.28L1012.08 386H1029.12L1039.32 356.723H1046.75L1036.65 386H1053.69L1063.79 356.723H1071.22L1061.12 386H1078.16L1088.26 356.723H1095.69L1085.59 386H1102.63L1112.73 356.723H1120.26L1110.06 386H1152.56L1212 0H137.11Z" fill="black"/>
</g>
<defs>
<clipPath id="clip0_1601_6">
<rect width="1212" height="386" fill="white"/>
</clipPath>
</defs>
</svg>
